<?xml version="1.0" encoding="UTF-8" standalone="no"?>
<!DOCTYPE svg PUBLIC "-//W3C//DTD SVG 1.1//EN" "http://www.w3.org/Graphics/SVG/1.1/DTD/svg11.dtd">
<svg width="100%" height="100%" viewBox="0 0 1537 304" version="1.1" xmlns="http://www.w3.org/2000/svg" xmlns:xlink="http://www.w3.org/1999/xlink" xml:space="preserve" xmlns:serif="http://www.serif.com/" style="fill-rule:evenodd;clip-rule:evenodd;stroke-linejoin:round;stroke-miterlimit:2;">
    <g transform="matrix(0.608,0,0,0.608,0,0)">
        <g transform="matrix(1,0,0,0.998004,-1,0.998004)">
            <path d="M251,-1C388.979,-1 501,111.245 501,249.5C501,387.755 388.979,500 251,500C113.021,500 1,387.755 1,249.5C1,111.245 113.021,-1 251,-1ZM251,40.473C366.135,40.473 459.61,134.135 459.61,249.5C459.61,364.865 366.135,458.527 251,458.527C135.865,458.527 42.39,364.865 42.39,249.5C42.39,134.135 135.865,40.473 251,40.473Z" style="fill:white;"/>
        </g>
        <g transform="matrix(1.10144,-0.295117,0.244903,0.914029,-12.6533,92.2614)">
            <path d="M230.393,73.089C224.595,71.426 233.807,74.194 225.058,71.459C212.132,67.419 196.692,66 187,66C110.284,66 48,141.054 48,233.5C48,325.946 110.284,401 187,401C263.716,401 326,325.946 326,233.5C326,228.067 325.781,230.035 325.343,224.63C325.201,222.881 323.887,213.343 315.203,213.05C311.989,212.942 310.566,213.148 310.566,213.148L290.29,252.825C290.29,252.825 289.89,253.831 289.838,254.206C281.635,313.703 238.685,359.125 187,359.125C129.463,359.125 82.75,302.834 82.75,233.5C82.75,164.166 129.463,107.875 187,107.875C193.022,107.875 206.962,109.881 213.3,111.163C217.203,111.953 218.223,111.898 221.518,112.399C230.929,113.833 232.937,108.141 232.937,108.141L240.834,85.716C240.834,85.716 244.452,77.123 230.393,73.089Z" style="fill:white;"/>
        </g>
        <g transform="matrix(1.30178,-0.349964,0.253285,0.942158,-200.006,98.1182)">
            <path d="M381.262,291.001L400.063,250.944L305.559,250C305.559,250 301.511,249.893 298.708,252.054C296.275,253.931 295,260.518 295,260.518L295,279.942C295,279.942 296.763,286.126 298.711,287.929C300.712,289.781 306.049,290.999 306.049,290.999L381.262,291.001Z" style="fill:white;"/>
        </g>
    </g>
    <g transform="matrix(1.274,0,0,0.79346,-244.425,-264.905)">
        <g transform="matrix(200.065,0,0,321.231,476,645.708)">
            <path d="M0.36,0.01C0.296,0.01 0.239,-0.005 0.191,-0.036C0.142,-0.066 0.104,-0.109 0.077,-0.165C0.05,-0.221 0.036,-0.287 0.036,-0.363C0.036,-0.44 0.05,-0.507 0.077,-0.563C0.104,-0.618 0.142,-0.662 0.189,-0.692C0.237,-0.722 0.292,-0.737 0.354,-0.737C0.393,-0.737 0.429,-0.732 0.462,-0.72C0.495,-0.709 0.525,-0.693 0.551,-0.671C0.577,-0.65 0.599,-0.625 0.616,-0.596C0.633,-0.567 0.646,-0.535 0.652,-0.5L0.562,-0.5C0.554,-0.524 0.544,-0.546 0.531,-0.565C0.518,-0.584 0.503,-0.6 0.486,-0.614C0.468,-0.627 0.449,-0.637 0.427,-0.645C0.405,-0.652 0.381,-0.655 0.354,-0.655C0.312,-0.655 0.272,-0.644 0.237,-0.622C0.202,-0.6 0.174,-0.567 0.153,-0.523C0.132,-0.48 0.121,-0.426 0.121,-0.363C0.121,-0.3 0.132,-0.247 0.153,-0.204C0.174,-0.161 0.203,-0.128 0.239,-0.106C0.275,-0.083 0.315,-0.072 0.36,-0.072C0.402,-0.072 0.439,-0.081 0.47,-0.099C0.502,-0.117 0.527,-0.142 0.544,-0.175C0.562,-0.208 0.571,-0.246 0.571,-0.291L0.599,-0.285L0.38,-0.285L0.38,-0.363L0.657,-0.363L0.657,-0.285C0.657,-0.225 0.645,-0.173 0.619,-0.129C0.594,-0.085 0.559,-0.051 0.514,-0.027C0.469,-0.002 0.418,0.01 0.36,0.01Z" style="fill:white;fill-rule:nonzero;"/>
        </g>
        <g transform="matrix(200.065,0,0,321.231,615.303,645.708)">
            <rect x="0.054" y="-0.728" width="0.083" height="0.728" style="fill:white;fill-rule:nonzero;"/>
        </g>
        <g transform="matrix(200.065,0,0,321.231,653.402,645.708)">
            <path d="M0.054,-0L0.054,-0.546L0.137,-0.546L0.137,-0L0.054,-0ZM0.096,-0.637C0.079,-0.637 0.065,-0.642 0.054,-0.653C0.042,-0.664 0.036,-0.678 0.036,-0.693C0.036,-0.709 0.042,-0.722 0.054,-0.733C0.065,-0.744 0.079,-0.75 0.096,-0.75C0.112,-0.75 0.126,-0.744 0.138,-0.733C0.149,-0.722 0.155,-0.709 0.155,-0.693C0.155,-0.678 0.149,-0.664 0.138,-0.653C0.126,-0.642 0.112,-0.637 0.096,-0.637Z" style="fill:white;fill-rule:nonzero;"/>
        </g>
        <g transform="matrix(200.065,0,0,321.231,691.5,645.708)">
            <path d="M0.259,0.012C0.213,0.012 0.173,0 0.138,-0.023C0.103,-0.046 0.076,-0.079 0.057,-0.121C0.037,-0.164 0.027,-0.214 0.027,-0.271C0.027,-0.329 0.037,-0.378 0.057,-0.421C0.077,-0.463 0.104,-0.495 0.139,-0.518C0.174,-0.541 0.214,-0.553 0.26,-0.553C0.296,-0.553 0.324,-0.547 0.344,-0.535C0.365,-0.523 0.381,-0.51 0.392,-0.495C0.403,-0.481 0.412,-0.468 0.418,-0.459L0.425,-0.459L0.425,-0.728L0.508,-0.728L0.508,-0L0.428,-0L0.428,-0.084L0.418,-0.084C0.412,-0.074 0.403,-0.062 0.392,-0.047C0.38,-0.031 0.364,-0.018 0.343,-0.006C0.322,0.006 0.294,0.012 0.259,0.012ZM0.27,-0.063C0.303,-0.063 0.332,-0.072 0.355,-0.09C0.378,-0.108 0.396,-0.132 0.408,-0.164C0.42,-0.195 0.426,-0.231 0.426,-0.272C0.426,-0.313 0.42,-0.349 0.408,-0.38C0.396,-0.411 0.379,-0.435 0.356,-0.452C0.332,-0.469 0.304,-0.478 0.27,-0.478C0.234,-0.478 0.205,-0.468 0.182,-0.45C0.158,-0.432 0.141,-0.407 0.129,-0.376C0.117,-0.346 0.111,-0.311 0.111,-0.272C0.111,-0.234 0.117,-0.199 0.129,-0.167C0.141,-0.135 0.159,-0.11 0.182,-0.092C0.206,-0.073 0.235,-0.063 0.27,-0.063Z" style="fill:white;fill-rule:nonzero;"/>
        </g>
        <g transform="matrix(200.065,0,0,321.231,803.842,645.708)">
            <path d="M0.282,0.012C0.23,0.012 0.184,0 0.146,-0.023C0.108,-0.047 0.079,-0.08 0.058,-0.122C0.038,-0.164 0.027,-0.213 0.027,-0.269C0.027,-0.325 0.037,-0.374 0.058,-0.417C0.078,-0.459 0.106,-0.493 0.143,-0.517C0.179,-0.541 0.222,-0.553 0.271,-0.553C0.3,-0.553 0.328,-0.548 0.356,-0.539C0.384,-0.529 0.409,-0.514 0.432,-0.493C0.455,-0.472 0.474,-0.444 0.487,-0.409C0.501,-0.374 0.508,-0.331 0.508,-0.28L0.508,-0.244L0.087,-0.244L0.087,-0.316L0.462,-0.316L0.424,-0.289C0.424,-0.326 0.418,-0.358 0.407,-0.386C0.395,-0.415 0.378,-0.437 0.356,-0.453C0.333,-0.469 0.305,-0.478 0.271,-0.478C0.238,-0.478 0.209,-0.469 0.185,-0.453C0.161,-0.436 0.143,-0.415 0.13,-0.389C0.118,-0.362 0.111,-0.334 0.111,-0.304L0.111,-0.256C0.111,-0.215 0.118,-0.18 0.133,-0.151C0.147,-0.122 0.167,-0.101 0.193,-0.086C0.219,-0.071 0.248,-0.063 0.282,-0.063C0.304,-0.063 0.324,-0.067 0.342,-0.073C0.36,-0.079 0.375,-0.089 0.388,-0.102C0.401,-0.115 0.411,-0.131 0.418,-0.149L0.499,-0.126C0.491,-0.099 0.476,-0.075 0.456,-0.054C0.436,-0.033 0.411,-0.017 0.382,-0.006C0.352,0.006 0.319,0.012 0.282,0.012Z" style="fill:white;fill-rule:nonzero;"/>
        </g>
        <g transform="matrix(200.065,0,0,321.231,910.517,645.708)">
            <path d="M0.357,0.01C0.296,0.01 0.24,-0.005 0.192,-0.036C0.143,-0.066 0.105,-0.109 0.078,-0.165C0.05,-0.221 0.036,-0.287 0.036,-0.363C0.036,-0.44 0.05,-0.507 0.078,-0.563C0.105,-0.618 0.143,-0.662 0.192,-0.692C0.24,-0.722 0.296,-0.737 0.357,-0.737C0.394,-0.737 0.428,-0.732 0.461,-0.721C0.493,-0.71 0.522,-0.695 0.548,-0.675C0.574,-0.654 0.596,-0.629 0.614,-0.6C0.631,-0.57 0.643,-0.537 0.649,-0.5L0.562,-0.5C0.556,-0.525 0.547,-0.548 0.534,-0.567C0.522,-0.586 0.506,-0.602 0.488,-0.615C0.469,-0.629 0.449,-0.639 0.427,-0.645C0.405,-0.652 0.382,-0.655 0.357,-0.655C0.313,-0.655 0.274,-0.644 0.238,-0.622C0.202,-0.6 0.174,-0.567 0.153,-0.523C0.132,-0.48 0.121,-0.426 0.121,-0.363C0.121,-0.3 0.132,-0.247 0.153,-0.204C0.174,-0.161 0.202,-0.128 0.238,-0.106C0.274,-0.083 0.313,-0.072 0.357,-0.072C0.382,-0.072 0.405,-0.076 0.427,-0.082C0.449,-0.089 0.469,-0.099 0.488,-0.112C0.506,-0.125 0.522,-0.141 0.534,-0.161C0.547,-0.18 0.556,-0.202 0.562,-0.228L0.649,-0.228C0.643,-0.19 0.631,-0.157 0.614,-0.127C0.596,-0.098 0.574,-0.073 0.548,-0.053C0.522,-0.033 0.493,-0.017 0.461,-0.006C0.428,0.004 0.394,0.01 0.357,0.01Z" style="fill:white;fill-rule:nonzero;"/>
        </g>
        <g transform="matrix(200.065,0,0,321.231,1046.69,645.708)">
            <rect x="0.054" y="-0.728" width="0.083" height="0.728" style="fill:white;fill-rule:nonzero;"/>
        </g>
        <g transform="matrix(200.065,0,0,321.231,1084.79,645.708)">
            <path d="M0.054,-0L0.054,-0.546L0.137,-0.546L0.137,-0L0.054,-0ZM0.096,-0.637C0.079,-0.637 0.065,-0.642 0.054,-0.653C0.042,-0.664 0.036,-0.678 0.036,-0.693C0.036,-0.709 0.042,-0.722 0.054,-0.733C0.065,-0.744 0.079,-0.75 0.096,-0.75C0.112,-0.75 0.126,-0.744 0.138,-0.733C0.149,-0.722 0.155,-0.709 0.155,-0.693C0.155,-0.678 0.149,-0.664 0.138,-0.653C0.126,-0.642 0.112,-0.637 0.096,-0.637Z" style="fill:white;fill-rule:nonzero;"/>
        </g>
        <g transform="matrix(200.065,0,0,321.231,1122.89,645.708)">
            <path d="M0.282,0.012C0.23,0.012 0.184,0 0.146,-0.023C0.108,-0.047 0.079,-0.08 0.058,-0.122C0.038,-0.164 0.027,-0.213 0.027,-0.269C0.027,-0.325 0.037,-0.374 0.058,-0.417C0.078,-0.459 0.106,-0.493 0.143,-0.517C0.179,-0.541 0.222,-0.553 0.271,-0.553C0.3,-0.553 0.328,-0.548 0.356,-0.539C0.384,-0.529 0.409,-0.514 0.432,-0.493C0.455,-0.472 0.474,-0.444 0.487,-0.409C0.501,-0.374 0.508,-0.331 0.508,-0.28L0.508,-0.244L0.087,-0.244L0.087,-0.316L0.462,-0.316L0.424,-0.289C0.424,-0.326 0.418,-0.358 0.407,-0.386C0.395,-0.415 0.378,-0.437 0.356,-0.453C0.333,-0.469 0.305,-0.478 0.271,-0.478C0.238,-0.478 0.209,-0.469 0.185,-0.453C0.161,-0.436 0.143,-0.415 0.13,-0.389C0.118,-0.362 0.111,-0.334 0.111,-0.304L0.111,-0.256C0.111,-0.215 0.118,-0.18 0.133,-0.151C0.147,-0.122 0.167,-0.101 0.193,-0.086C0.219,-0.071 0.248,-0.063 0.282,-0.063C0.304,-0.063 0.324,-0.067 0.342,-0.073C0.36,-0.079 0.375,-0.089 0.388,-0.102C0.401,-0.115 0.411,-0.131 0.418,-0.149L0.499,-0.126C0.491,-0.099 0.476,-0.075 0.456,-0.054C0.436,-0.033 0.411,-0.017 0.382,-0.006C0.352,0.006 0.319,0.012 0.282,0.012Z" style="fill:white;fill-rule:nonzero;"/>
        </g>
        <g transform="matrix(200.065,0,0,321.231,1229.57,645.708)">
            <path d="M0.137,-0.328L0.137,-0L0.054,-0L0.054,-0.546L0.134,-0.546L0.134,-0.46L0.142,-0.46C0.154,-0.488 0.174,-0.51 0.2,-0.527C0.226,-0.544 0.259,-0.553 0.301,-0.553C0.338,-0.553 0.37,-0.545 0.397,-0.53C0.425,-0.515 0.447,-0.493 0.462,-0.462C0.478,-0.432 0.485,-0.393 0.485,-0.347L0.485,-0L0.402,-0L0.402,-0.341C0.402,-0.383 0.391,-0.417 0.369,-0.441C0.346,-0.465 0.316,-0.478 0.277,-0.478C0.25,-0.478 0.226,-0.472 0.205,-0.46C0.184,-0.448 0.167,-0.431 0.155,-0.409C0.143,-0.387 0.137,-0.36 0.137,-0.328Z" style="fill:white;fill-rule:nonzero;"/>
        </g>
        <g transform="matrix(200.065,0,0,321.231,1337.41,645.708)">
            <path d="M0.29,-0.546L0.29,-0.475L0.008,-0.475L0.008,-0.546L0.29,-0.546ZM0.09,-0.676L0.173,-0.676L0.173,-0.156C0.173,-0.128 0.179,-0.107 0.19,-0.094C0.202,-0.081 0.221,-0.074 0.246,-0.074C0.252,-0.074 0.257,-0.075 0.263,-0.075C0.269,-0.076 0.276,-0.077 0.283,-0.078L0.301,-0.003C0.293,0 0.283,0.002 0.272,0.004C0.261,0.006 0.25,0.007 0.238,0.007C0.194,0.007 0.159,-0.006 0.131,-0.032C0.104,-0.058 0.09,-0.092 0.09,-0.134L0.09,-0.676Z" style="fill:white;fill-rule:nonzero;"/>
        </g>
    </g>
</svg>
